# xmcd
#
# Track frame offsets:
#	150
#	3715
#	23627
#	35982
#	49605
#	65547
#	80025
#	103707
#	121420
#	137082
#
# Disc length: 1895 seconds
#
# Revision: 4
# Processed by: cddbd v1.5.2PL0 Copyright (c) Steve Scherf et al.
# Submitted via: audiograbber 1.83.01
#
DISCID=8907650a
DTITLE=Various Artist - New Country - Rodeo 1995
DYEAR=1995
DGENRE=Country
TTITLE0=John McEuen - The Wild West Theme
TTITLE1=The Smokin' Armadilloes - I'm A Cowboy (dance mix)
TTITLE2=Chris LeDoux - Dallas Days And Ft. Worth Nights
TTITLE3=Don Walser - Cowpoke
TTITLE4=Big Rig Jacknife - All Night Truckstop
TTITLE5=Brooks and Dunn - Tonight The Bottle Let Me Down
TTITLE6=Ray Wylie Hubbard - The Dust Of The Chase
TTITLE7=Kinkie Friedman And The Texas Jewboys - Wild Man From Borneo
TTITLE8=Skip Gorman - Where The Old Red River Flows
TTITLE9=John McEuen - Guitar Wild West Theme
EXTD=
EXTT0=
EXTT1=
EXTT2=
EXTT3=
EXTT4=
EXTT5=
EXTT6=
EXTT7=
EXTT8=
EXTT9=
PLAYORDER=
